<svg width="32" height="36" xmlns="http://www.w3.org/2000/svg">
 <style type="text/css">.st0{fill:#FFFFFF;}</style>

 <g>
  <title>background</title>
  <rect fill="none" id="canvas_background" height="38" width="34" y="-1" x="-1"/>
 </g>
 <g>
  <title>Layer 1</title>
  <g id="svg_1">
   <ellipse id="svg_2" ry="2" rx="1.9" cy="17.1" cx="19.6" class="st0"/>
   <ellipse id="svg_3" ry="2" rx="1.9" cy="17.1" cx="12.8" class="st0"/>
   <path id="svg_4" d="m28.5,0l-24.7,0c-2.1,0 -3.8,1.7 -3.8,3.7l0,24.3c0,2.1 1.7,3.7 3.8,3.7l21,0l-1,-3.3l2.4,2.1l2.2,2l4,3.4l0,-7.9l0,-1.8l0,-22.5c-0.1,-2 -1.8,-3.7 -3.9,-3.7zm-7.1,23.5c0,0 -0.7,-0.8 -1.2,-1.5c2.4,-0.7 3.3,-2.1 3.3,-2.1c-0.8,0.5 -1.5,0.8 -2.1,1.1c-0.9,0.4 -1.8,0.6 -2.7,0.8c-1.8,0.3 -3.4,0.2 -4.8,0c-1.1,-0.2 -2,-0.5 -2.7,-0.8c-0.4,-0.2 -0.9,-0.4 -1.4,-0.6c-0.1,0 -0.1,-0.1 -0.2,-0.1c0,0 -0.1,0 -0.1,0c-0.3,-0.2 -0.5,-0.3 -0.5,-0.3s0.9,1.4 3.2,2.1c-0.6,0.7 -1.2,1.5 -1.2,1.5c-4.1,-0.1 -5.6,-2.7 -5.6,-2.7c0,-5.8 2.7,-10.5 2.7,-10.5c2.7,-2 5.2,-1.9 5.2,-1.9l0.2,0.2c-3.3,0.8 -4.8,2.3 -4.8,2.3s0.4,-0.2 1.1,-0.5c2,-0.8 3.5,-1.1 4.2,-1.1c0.1,0 0.2,0 0.3,0c1.1,-0.1 2.4,-0.2 3.7,0c1.8,0.2 3.6,0.7 5.6,1.7c0,0 -1.5,-1.4 -4.6,-2.3l0.3,-0.3c0,0 2.5,-0.1 5.2,1.9c0,0 2.7,4.7 2.7,10.5c-0.1,-0.1 -1.7,2.5 -5.8,2.6z" class="st0"/>
  </g>
 </g>
</svg>